<svg xmlns="http://www.w3.org/2000/svg" width="32" height="32" viewBox="0 0 32 32">
  <defs>
    <linearGradient id="grad" x1="0%" y1="0%" x2="100%" y2="100%">
      <stop offset="0%" style="stop-color:#8b5cf6;stop-opacity:1" />
      <stop offset="100%" style="stop-color:#3b82f6;stop-opacity:1" />
    </linearGradient>
  </defs>
  <rect width="32" height="32" rx="8" fill="url(#grad)" />
  <!-- Simple Head Profile -->
  <path d="M10 22 C10 18, 12 16, 14 16 C16 16, 18 18, 18 22 M16 14 C16 12, 14 10, 14 8 C14 6, 16 4, 18 4 C20 4, 22 6, 22 8 C22 10, 20 12, 20 14" fill="none" stroke="white" stroke-width="2" stroke-linecap="round" />
  <!-- Simple Document -->
  <path d="M19 19 L19 26 L26 26 L26 21 L24 19 Z" fill="none" stroke="white" stroke-width="1.5" stroke-linecap="round" stroke-linejoin="round" />
  <path d="M24 19 L24 21 L26 21" fill="none" stroke="white" stroke-width="1.5" />
</svg>